<svg width="44" height="44" viewBox="0 0 44 44" fill="none" xmlns="http://www.w3.org/2000/svg">
<g id="devicon:github-wordmark" clip-path="url(#clip0_248_4)">
<g id="Group">
<path id="Vector" fill-rule="evenodd" clip-rule="evenodd" d="M22 0.519775C13.9243 0.519775 7.37515 7.06718 7.37515 15.1446C7.37515 21.6061 11.5655 27.0882 17.3766 29.0218C18.1074 29.1572 18.3758 28.7045 18.3758 28.3181C18.3758 27.9696 18.3621 26.8173 18.3559 25.5956C14.2869 26.4801 13.4286 23.87 13.4286 23.87C12.7634 22.1795 11.8047 21.7298 11.8047 21.7298C10.4778 20.8223 11.9044 20.8409 11.9044 20.8409C13.3732 20.944 14.1467 22.3482 14.1467 22.3482C15.4509 24.584 17.568 23.9374 18.4023 23.5637C18.534 22.6184 18.9128 21.9729 19.3311 21.6078C16.0827 21.2383 12.6679 19.9839 12.6679 14.3801C12.6679 12.7834 13.2392 11.4789 14.1749 10.4545C14.0229 10.086 13.5224 8.59824 14.3165 6.58387C14.3165 6.58387 15.5444 6.19131 18.3384 8.08365C19.5054 7.75949 20.7567 7.5969 21.9993 7.5914C23.2423 7.59724 24.4942 7.75984 25.663 8.08365C28.4542 6.19165 29.6807 6.58421 29.6807 6.58421C30.4769 8.59859 29.9764 10.086 29.8244 10.4548C30.7622 11.4785 31.3294 12.7834 31.3294 14.3805C31.3294 19.9973 27.908 21.2341 24.6513 21.5958C25.1759 22.0495 25.6434 22.9398 25.6434 24.3045C25.6434 26.2612 25.6269 27.8359 25.6269 28.3175C25.6269 28.7059 25.8902 29.1624 26.6313 29.0187C32.4393 27.0827 36.6242 21.6026 36.6242 15.1432C36.6248 7.06753 30.0771 0.519775 22 0.519775Z" fill="#181616"/>
<path id="Vector_2" d="M12.9147 21.5174C12.882 21.5902 12.7676 21.6119 12.6637 21.562C12.5572 21.5139 12.4981 21.4153 12.5324 21.342C12.5634 21.2678 12.6782 21.2468 12.7844 21.2967C12.891 21.3448 12.9511 21.4445 12.9147 21.5174ZM13.507 22.1787C13.4372 22.243 13.3007 22.2131 13.2079 22.1107C13.1123 22.0086 13.0945 21.8721 13.1653 21.8068C13.2368 21.7422 13.3691 21.7724 13.4643 21.8745C13.5606 21.9776 13.5795 22.1127 13.5066 22.1784L13.507 22.1787ZM14.0834 23.0202C13.9941 23.0828 13.8473 23.0244 13.7569 22.8941C13.6668 22.7645 13.6668 22.6088 13.7586 22.5459C13.8493 22.4833 13.9937 22.5397 14.0851 22.6686C14.1752 22.8009 14.1752 22.957 14.0834 23.0202ZM14.8734 23.8342C14.7933 23.9226 14.6224 23.8989 14.4976 23.7782C14.3698 23.6603 14.3344 23.4929 14.4145 23.4045C14.4959 23.3162 14.6675 23.3409 14.7933 23.4606C14.9205 23.5781 14.959 23.7462 14.8734 23.8342ZM15.9637 24.3065C15.928 24.4214 15.7637 24.4733 15.598 24.4248C15.4323 24.3746 15.3244 24.2405 15.3574 24.125C15.3917 24.0095 15.5574 23.9556 15.7241 24.0075C15.8891 24.057 15.9978 24.1897 15.9637 24.3065ZM17.16 24.3942C17.1645 24.5145 17.0239 24.6149 16.8499 24.6169C16.6753 24.6211 16.5337 24.5234 16.5316 24.4045C16.5316 24.2828 16.6691 24.1838 16.8437 24.1811C17.0177 24.1776 17.16 24.2746 17.16 24.3942ZM18.2737 24.2048C18.2944 24.3224 18.1741 24.4434 18.0011 24.4753C17.8313 24.5069 17.6746 24.4341 17.6526 24.3172C17.632 24.1969 17.7547 24.0766 17.9241 24.0449C18.0971 24.0147 18.2517 24.0852 18.2737 24.2048Z" fill="#181616"/>
</g>
<path id="Vector_3" d="M8.54392 37.2289H4.86579C4.82021 37.2289 4.77649 37.247 4.74426 37.2792C4.71203 37.3114 4.69392 37.3552 4.69392 37.4007V39.1992C4.69392 39.2448 4.71203 39.2885 4.74426 39.3208C4.77649 39.353 4.82021 39.3711 4.86579 39.3711H6.30026V41.6055C6.30026 41.6055 5.97817 41.7155 5.08682 41.7155C4.03632 41.7155 2.56817 41.3319 2.56817 38.1034C2.56817 34.8745 4.09717 34.4493 5.53267 34.4493C6.77498 34.4493 7.30986 34.6679 7.65086 34.7735C7.75742 34.8058 7.85711 34.6992 7.85711 34.6043L8.2672 32.8667C8.26781 32.8407 8.26212 32.8149 8.25063 32.7916C8.23914 32.7682 8.22218 32.748 8.2012 32.7326C8.06267 32.6336 7.21911 32.162 5.08751 32.162C2.63176 32.162 0.112762 33.2063 0.112762 38.2292C0.112762 43.2514 2.99682 43.9997 5.42714 43.9997C7.43945 43.9997 8.66011 43.1396 8.66011 43.1396C8.71029 43.1121 8.71579 43.0417 8.71579 43.009V37.4004C8.71579 37.3548 8.69769 37.3111 8.66545 37.2789C8.63322 37.2466 8.5895 37.2289 8.54392 37.2289ZM27.3302 32.591H25.2588C25.2362 32.5911 25.2138 32.5956 25.193 32.6044C25.1721 32.6131 25.1532 32.6259 25.1373 32.6419C25.1214 32.658 25.1088 32.677 25.1003 32.698C25.0918 32.7189 25.0874 32.7413 25.0876 32.7639L25.0883 36.7665H21.8598V32.7639C21.8599 32.7413 21.8556 32.7189 21.8471 32.698C21.8386 32.6771 21.826 32.6581 21.8102 32.6421C21.7943 32.626 21.7754 32.6132 21.7546 32.6045C21.7338 32.5957 21.7115 32.5911 21.6889 32.591H19.6178C19.5952 32.5911 19.5729 32.5956 19.552 32.6044C19.5312 32.6131 19.5123 32.6259 19.4964 32.6419C19.4805 32.658 19.4679 32.677 19.4594 32.698C19.4508 32.7189 19.4465 32.7413 19.4466 32.7639V43.6023C19.4466 43.6976 19.5236 43.7752 19.6178 43.7752H21.6889C21.7115 43.7751 21.7339 43.7705 21.7547 43.7617C21.7755 43.7529 21.7944 43.7401 21.8103 43.724C21.8261 43.708 21.8387 43.6889 21.8472 43.6679C21.8557 43.647 21.8599 43.6246 21.8598 43.602V38.9662H25.0883L25.0828 43.602C25.0828 43.6976 25.1598 43.7752 25.2546 43.7752H27.3302C27.3528 43.7751 27.3752 43.7705 27.396 43.7617C27.4168 43.7529 27.4357 43.7401 27.4516 43.724C27.4674 43.708 27.48 43.6889 27.4885 43.6679C27.4969 43.647 27.5012 43.6246 27.501 43.602V32.7635C27.5013 32.741 27.497 32.7186 27.4885 32.6976C27.4801 32.6767 27.4675 32.6577 27.4516 32.6416C27.4357 32.6256 27.4168 32.6128 27.396 32.6042C27.3751 32.5955 27.3528 32.591 27.3302 32.591ZM11.1169 32.8375C10.3799 32.8375 9.78176 33.44 9.78176 34.186C9.78176 34.9309 10.3799 35.5352 11.1169 35.5352C11.8546 35.5352 12.4524 34.9309 12.4524 34.186C12.4524 33.44 11.8542 32.8375 11.1169 32.8375ZM12.133 36.1402H10.0685C9.97358 36.1402 9.88901 36.2378 9.88901 36.3327V43.5006C9.88901 43.7113 10.0203 43.7739 10.1901 43.7739H12.0498C12.2544 43.7739 12.3042 43.6735 12.3042 43.4971V36.3131C12.3043 36.2905 12.2999 36.2682 12.2914 36.2473C12.2828 36.2264 12.2702 36.2074 12.2543 36.1914C12.2384 36.1754 12.2196 36.1626 12.1987 36.1539C12.1779 36.1452 12.1556 36.1403 12.133 36.1402ZM35.3726 36.1564H33.3169C33.2944 36.1565 33.2721 36.1612 33.2513 36.17C33.2305 36.1788 33.2116 36.1916 33.1958 36.2077C33.18 36.2238 33.1675 36.2428 33.159 36.2637C33.1505 36.2847 33.1463 36.307 33.1465 36.3296V41.644C33.1465 41.644 32.6239 42.0255 31.8832 42.0255C31.1424 42.0255 30.9458 41.6897 30.9458 40.9641V36.3296C30.9459 36.307 30.9417 36.2846 30.9332 36.2637C30.9247 36.2427 30.9121 36.2236 30.8963 36.2076C30.8804 36.1915 30.8615 36.1787 30.8407 36.1699C30.8199 36.1611 30.7975 36.1565 30.7749 36.1564H28.689C28.6664 36.1565 28.644 36.161 28.6232 36.1698C28.6023 36.1785 28.5834 36.1913 28.5675 36.2074C28.5516 36.2235 28.539 36.2426 28.5305 36.2636C28.522 36.2845 28.5177 36.307 28.5179 36.3296V41.3147C28.5179 43.47 29.7193 43.9973 31.3717 43.9973C32.7274 43.9973 33.8205 43.2479 33.8205 43.2479C33.8205 43.2479 33.8721 43.6432 33.8962 43.6896C33.9202 43.7364 33.9811 43.7835 34.0474 43.7835L35.3743 43.7776C35.397 43.7776 35.4194 43.7732 35.4404 43.7644C35.4613 43.7557 35.4803 43.7429 35.4963 43.7268C35.5123 43.7107 35.5249 43.6916 35.5335 43.6706C35.542 43.6496 35.5463 43.6271 35.5462 43.6044L35.5451 36.3286C35.545 36.283 35.5268 36.2393 35.4946 36.207C35.4625 36.1747 35.4189 36.1564 35.3733 36.156L35.3726 36.1564ZM40.9901 35.913C39.8228 35.913 39.0287 36.4338 39.0287 36.4338V32.7635C39.0288 32.741 39.0245 32.7186 39.016 32.6977C39.0075 32.6768 38.995 32.6578 38.9791 32.6417C38.9632 32.6257 38.9444 32.6129 38.9236 32.6041C38.9028 32.5954 38.8804 32.5908 38.8579 32.5906H36.7813C36.7586 32.5906 36.7362 32.5951 36.7152 32.6038C36.6943 32.6125 36.6753 32.6253 36.6594 32.6413C36.6434 32.6574 36.6307 32.6765 36.6222 32.6975C36.6136 32.7184 36.6092 32.7409 36.6094 32.7635V43.602C36.6092 43.6246 36.6136 43.6471 36.6222 43.6681C36.6307 43.6891 36.6434 43.7081 36.6594 43.7242C36.6753 43.7403 36.6943 43.753 36.7152 43.7617C36.7362 43.7704 36.7586 43.7749 36.7813 43.7749H38.2223C38.2876 43.7749 38.3364 43.7416 38.3725 43.6828C38.4079 43.6243 38.4598 43.183 38.4598 43.183C38.4598 43.183 39.3089 43.9873 40.9169 43.9873C42.8041 43.9873 43.8869 43.0303 43.8869 39.6898C43.8869 36.3492 42.1579 35.9126 40.9898 35.9126L40.9901 35.913ZM40.1789 42.0194C39.4663 41.9977 38.9826 41.6742 38.9826 41.6742V38.2419C38.9826 38.2419 39.4598 37.9497 40.0448 37.8968C40.7849 37.8304 41.4982 38.0542 41.4982 39.8197C41.4982 41.6818 41.1768 42.0493 40.1792 42.019L40.1789 42.0194ZM18.2858 41.9788C18.1954 41.9788 17.9637 42.0156 17.7255 42.0156C16.9624 42.0156 16.7035 41.6608 16.7035 41.2016V38.1539H18.2573C18.2799 38.1539 18.3024 38.1494 18.3234 38.1407C18.3443 38.132 18.3633 38.1192 18.3793 38.1031C18.3953 38.087 18.4079 38.0679 18.4165 38.0468C18.425 38.0258 18.4293 38.0033 18.4291 37.9806V36.3114C18.4292 36.2888 18.4249 36.2663 18.4163 36.2454C18.4077 36.2245 18.395 36.2054 18.379 36.1894C18.3631 36.1734 18.3441 36.1607 18.3232 36.152C18.3023 36.1433 18.2799 36.1388 18.2573 36.1388H16.7035L16.7011 34.0866C16.7011 34.0086 16.6612 33.9698 16.5712 33.9698H14.4537C14.3719 33.9698 14.3275 34.0062 14.3275 34.0849V36.2059C14.3275 36.2059 13.2664 36.462 13.1949 36.4826C13.1592 36.493 13.1278 36.5147 13.1055 36.5445C13.0832 36.5742 13.0711 36.6104 13.0711 36.6476V37.9803C13.071 38.0029 13.0753 38.0252 13.0838 38.0462C13.0923 38.0671 13.1049 38.0861 13.1207 38.1021C13.1366 38.1182 13.1555 38.131 13.1763 38.1397C13.1971 38.1485 13.2194 38.1531 13.242 38.1532H14.3275V41.3597C14.3275 43.7419 15.9981 43.9756 17.1256 43.9756C17.6402 43.9756 18.2566 43.8106 18.3583 43.7728C18.4202 43.7498 18.4556 43.6862 18.4556 43.6171L18.457 42.151C18.4563 42.1056 18.438 42.0622 18.4059 42.03C18.3738 41.9978 18.3305 41.9793 18.2851 41.9785L18.2858 41.9788Z" fill="#100E0F"/>
</g>
<defs>
<clipPath id="clip0_248_4">
<rect width="44" height="44" fill="white"/>
</clipPath>
</defs>
</svg>
