<svg width="81" height="80" viewBox="0 0 81 80" fill="none" xmlns="http://www.w3.org/2000/svg">
<g clip-path="url(#clip0_215_111)">
<path d="M0.299988 0H80.3V80H0.299988V0Z" fill="#F7DF1E"/>
<path d="M21.335 66.8537L27.4569 63.1487C28.6382 65.2428 29.7125 67.0147 32.2897 67.0147C34.76 67.0147 36.3178 66.0484 36.3178 62.2897V36.7278H43.8357V62.3959C43.8357 70.1825 39.2713 73.7269 32.6119 73.7269C26.5978 73.7269 23.1069 70.6122 21.3347 66.8531M47.9191 66.0481L54.0403 62.504C55.6519 65.1356 57.7463 67.0687 61.4513 67.0687C64.5666 67.0687 66.5528 65.5112 66.5528 63.3631C66.5528 60.7856 64.5122 59.8725 61.0753 58.3694L59.1963 57.5631C53.7722 55.2547 50.1744 52.3547 50.1744 46.2328C50.1744 40.594 54.4703 36.2978 61.1832 36.2978C65.9625 36.2978 69.3994 37.9628 71.8694 42.3125L66.0157 46.0719C64.7266 43.7628 63.331 42.85 61.1828 42.85C58.981 42.85 57.5847 44.2462 57.5847 46.0719C57.5847 48.3272 58.981 49.2406 62.2028 50.6369L64.0822 51.4422C70.4728 54.1812 74.0707 56.9734 74.0707 63.2559C74.0707 70.0228 68.7544 73.7278 61.6122 73.7278C54.6313 73.7278 50.1203 70.3984 47.9188 66.0484" fill="black"/>
</g>
<defs>
<clipPath id="clip0_215_111">
<rect width="80" height="80" fill="white" transform="translate(0.299988)"/>
</clipPath>
</defs>
</svg>
