<svg width="81" height="80" viewBox="0 0 81 80" fill="none" xmlns="http://www.w3.org/2000/svg">
<g clip-path="url(#clip0_215_121)">
<path d="M61.55 0H19.05C8.69465 0 0.299988 8.39466 0.299988 18.75V61.25C0.299988 71.6053 8.69465 80 19.05 80H61.55C71.9053 80 80.3 71.6053 80.3 61.25V18.75C80.3 8.39466 71.9053 0 61.55 0Z" fill="#F03C2E"/>
<mask id="mask0_215_121" style="mask-type:luminance" maskUnits="userSpaceOnUse" x="9" y="8" width="63" height="64">
<path d="M9.04999 8.75H71.55V71.25H9.04999V8.75Z" fill="white"/>
</mask>
<g mask="url(#mask0_215_121)">
<path d="M70.3704 37.2168L43.0832 9.92966C42.5206 9.36644 41.8035 8.98285 41.0227 8.82747C40.242 8.6721 39.4327 8.75192 38.6973 9.05684C38.2092 9.25941 37.7657 9.55597 37.392 9.92966L31.7279 15.5937L38.9154 22.7812C40.5873 22.1953 42.5013 22.5956 43.8332 23.9278C44.4674 24.563 44.91 25.3637 45.1107 26.2385C45.3113 27.1133 45.2618 28.0269 44.9679 28.875L51.8957 35.8028C53.5717 35.2247 55.5051 35.5975 56.8429 36.9393C57.5131 37.6092 57.9695 38.4628 58.1542 39.3921C58.339 40.3215 58.2438 41.2848 57.8807 42.16C57.3941 43.3334 56.4614 44.2656 55.2877 44.7515C54.114 45.2375 52.7954 45.2375 51.6217 44.7515C51.0404 44.5106 50.5123 44.1578 50.0676 43.7128C48.6613 42.3065 48.3138 40.2362 49.0248 38.5037L42.5638 32.0428V49.045C43.0329 49.277 43.4615 49.583 43.8332 49.9512C44.7314 50.8494 45.236 52.0677 45.236 53.3379C45.236 54.6082 44.7314 55.8264 43.8332 56.7247C42.935 57.6229 41.7168 58.1275 40.4465 58.1275C39.1762 58.1275 37.958 57.6229 37.0598 56.7247C36.3894 56.0551 35.9329 55.2016 35.7478 54.2724C35.5628 53.3432 35.6577 52.3799 36.0204 51.5047C36.2613 50.9235 36.6145 50.3956 37.0598 49.9512C37.5226 49.4903 38.0363 49.1406 38.6282 48.9062V31.7459C38.0409 31.5059 37.5076 31.1507 37.0598 30.7012C36.3873 30.0294 35.9301 29.1726 35.7464 28.24C35.5628 27.3074 35.661 26.3412 36.0285 25.4647L28.9388 18.3793L10.2279 37.0706C9.66463 37.6335 9.28097 38.3508 9.1255 39.1318C8.97002 39.9128 9.04971 40.7224 9.35447 41.4581C9.55715 41.9465 9.85393 42.3902 10.2279 42.764L37.517 70.049C37.8907 70.4227 38.3342 70.7193 38.8223 70.9218C39.8087 71.3297 40.9165 71.3297 41.9029 70.9218C42.391 70.7193 42.8345 70.4227 43.2082 70.049L70.3704 42.93C70.7444 42.5563 71.0411 42.1125 71.2436 41.6241C71.4461 41.1357 71.5503 40.6121 71.5504 40.0834C71.5504 39.5546 71.4461 39.031 71.2437 38.5426C71.0412 38.0541 70.7445 37.6103 70.3704 37.2365" fill="white"/>
</g>
</g>
<defs>
<clipPath id="clip0_215_121">
<rect width="80" height="80" fill="white" transform="translate(0.299988)"/>
</clipPath>
</defs>
</svg>
